<?xml version="1.0" encoding="UTF-8"?>
<svg id="Layer_3" xmlns="http://www.w3.org/2000/svg" version="1.1" viewBox="0 0 415 269">
  <!-- Generator: Adobe Illustrator 29.1.0, SVG Export Plug-In . SVG Version: 2.1.0 Build 142)  -->
  <defs>
    <style>
      .st0 {
        fill: #fff;
      }
    </style>
  </defs>
  <g>
    <path class="st0" d="M403.4,136.4c-1.2-1.5-2.8-3.7-5.2-3.9s-6.5,1.3-10.9,11.9c-10.2,25.3-20.9,48.4-43.2,46.7-2.6-.2-12.8-2.6-12.8-2.6l8.5,11.5s6.6,1.7,12,2.1,23.2-2,33.4-22.3c10.2-20.3,13.8-37.3,20.5-36.8,2,.2,4,1,4,1,0,0-5.1-6.2-6.3-7.7Z"/>
    <path class="st0" d="M344.4,154.8c1.1,1.5,3.1,3,5.5,3.2,2.3.2,11.1-3.1,11.7-10.9.2-2.6.2-4.4-2.9-9.5-3.1-5.1-6.4-12.1-12.9-12.6-9-.7-23.2,14.9-32.9,18.4-.4-3.7-2.2-7.5-4.5-12-4.1-8.1-7.8-13.2-15.1-13.8-13.7-1-28.7,13-44.4,25.1-9.7-7.7-13.6-17.1-16.8-17.3,0,0-.9,9.1-17.8,7.9-4.4-.3-6.3-2-7.2-3.4,3.6-37.4,41.6-36.6,43.4-61.1,0,0,0-.2,0-.3.5-6.6-1-13.2-4.3-19l-3.6-6.4s1.5,9.4,1.1,14.5c-1.5,20.5-41.5,29.1-43.6,56.9-.4,5.5.7,9.1,4.4,16.4,3.6,7.3,7.3,14,16.6,14.7,10.1.8,15.2-6.3,16.9-9.2,1.7,3,3.8,6.3,6.5,9.6-11.1,8.2-22.5,14.7-34.1,13.8-9.5-.7-18.9-12.2-18.9-12.2l5.2,12.5s5.1,10.8,20.8,12c12.2.9,24.7-7.2,37-16.5,6.5,4.9,14.9,8.6,25.7,9.4,14.3,1.1,24.5-4.5,29.4-11,1.4.9,2.9,1.5,4.4,1.6,8,.6,15.8-6.3,23.5-11.9,2,3.3,6,9.9,6.8,11ZM353.1,136.7c-1.1,4.6-5,9.8-8.9,9.5-2.5-.2-4.7-1.6-6.1-2.7,5-3.6,10-6.6,15-6.7ZM206.5,128.1v.6c0-.4,0-.6,0-.6ZM302.3,142.1c-1.7-1.1-1.8-2.3-1.8-2.3,0,1,.2,2.3.7,3.7-4.5,5.4-12.5,10.3-25.7,9.3-5.2-.4-9.7-1.4-13.7-2.8,13.3-10.5,26-20.5,37.2-19.6,3.7.3,5.9,1.3,7.2,2.4-.3,2.3-1.4,5.8-4,9.4ZM307.9,134.6c.2.3.2.5.2.5l-.2-.5Z"/>
    <path class="st0" d="M213.2,193.2c-15.6-1.2-45.3-10.4-42.7-44.5,4.8-64.2,73.6-97.9,75.5-122.7,0,0,0-.2,0-.3.5-6.6-1-13.2-4.3-19l-3.6-6.4s1.5,9.4,1.1,14.5c-1.5,20.5-69.5,67.3-72.9,111.5-1.3,17.4-3.2,25.7,5.1,44.3,8.3,18.7,20.4,33.6,49,35.7,35.1,2.6,36.3-15.9,36.5-19.4l-5.2-13.4s2.1,22.7-38.6,19.6Z"/>
    <path class="st0" d="M137,128.6c4.4-57.9,68.3-77.2,70-100.5,0,0,0-.2,0-.3.5-6.6-1-13.2-4.3-19l-3.6-6.4s1.5,9.4,1.1,14.5c-1.5,20.5-68.7,48.6-72,92.8-1.4,18.3,13.2,32.5,18.4,38.6s11.3,11.2,10.9,17.2-5,7.4-18.7,6.4c-15.5-1.2-30-16.1-33.8-20.3l-1-1.1s0,0,0,0c0,.6,1.2,7.4.9,12.5-1.8,24.5-36.7,39-65.9,36.8-21.4-1.6-26.6-9-30.2-13,2.7-21.6,10.3-27.9,16-27.4,9.6.7,18.4,11.2,18.6,8.7.3-4.3-6.5-13.5-6.4-15.3.1-1.9,1.5-6.5,9-6,14.9,1.1,14.3,9.5,26.2,10.4,10,.8,18.3-3.8,19-12.8.2-3.3-1.1-7.5-1.1-7.5l5.6,5.7c-2.6-10.5-14.8-24.7-14.8-24.7,0,0,3.4,5.6,2.9,12.6-.5,6.9-7.7,12.8-19.7,11.9-9.1-.7-17.2-9.9-22.6-10.3-5.3-.4-11.7.9-12.2,6.8-.4,6,3.5,12.4,3.5,12.4,0,0-10.4-5.9-17.5-6.4s-12.9,12-14.5,32.2c-2.4,31.7,3.2,77.2,3.2,77.2l7.7,14.2s-6.4-38.9-3.6-76.1c0-1.3.2-2.6.4-3.8,9.5,11.7,15.8,20.5,39.2,22.3,33.1,2.5,63.9-15.8,65.3-34.8.4-5.9,0-10.8-.3-13.6,7.7,8.8,19.9,19.3,34.6,20.4,13.3,1,18.8-1.8,19.1-6.4.5-6.7-7.3-18-15.7-26.4-8.4-8.4-14.1-17.7-13.8-21.6Z"/>
  </g>
  <g>
    <path class="st0" d="M405.5,98c-7.1,4-12.7,4.4-20.3,10.2-7.6,5.8-8.7,11.6-8.7,11.6,0,0,1.6-3.5,7.5-7.3,5.9-3.8,16.3-7,22.9-12.1,6.6-5,7.8-9.9,7.8-9.9,0,0-1.9,3.5-9.1,7.5Z"/>
    <path class="st0" d="M357,96.2c-7.1,4-12.7,4.4-20.3,10.2-7.6,5.8-8.7,11.6-8.7,11.6,0,0,1.6-3.5,7.5-7.3,5.9-3.8,16.3-7,22.9-12.1s7.8-9.9,7.8-9.9c0,0-1.9,3.5-9.1,7.5Z"/>
    <path class="st0" d="M294.4,65.5s-1.9,3.5-9.1,7.5c-7.1,4-12.7,4.4-20.3,10.2-7.6,5.8-8.7,11.6-8.7,11.6,0,0,1.6-3.5,7.5-7.3,5.9-3.8,16.3-7,22.9-12.1,6.6-5,7.8-9.9,7.8-9.9Z"/>
    <path class="st0" d="M106.7,213.3c-7.1,4-12.7,4.4-20.3,10.2s-8.7,11.6-8.7,11.6c0,0,1.6-3.5,7.5-7.3,5.9-3.8,16.3-7,22.9-12.1,6.6-5,7.8-9.9,7.8-9.9,0,0-1.9,3.5-9.1,7.5Z"/>
    <path class="st0" d="M144.1,48.6c-6.6,6-12.3,7.9-19,15.8-6.6,8-6.4,14.4-6.4,14.4,0,0,.8-4.1,6.1-9.6,5.3-5.5,15.5-11.5,21.2-18.5,5.7-7,5.8-12.4,5.8-12.4,0,0-1.2,4.2-7.7,10.2Z"/>
    <path class="st0" d="M91.9,86.6c5.5-16.9-2.7-22.1-2.7-22.1l-1.1,4.7c6.1,4.9,3.8,17.4,3.8,17.4Z"/>
    <path class="st0" d="M164.1,196.6l-1.1,4.7c6.1,4.9,3.8,17.4,3.8,17.4,5.5-16.9-2.7-22.1-2.7-22.1Z"/>
    <path class="st0" d="M66.8,99.8c-3-.1-3.8-1-3.8-1l-3.8,4.5s.4,1.1,3.8,1.3c3.4.1,4.3,0,4.3,0-2.9,3.6-9.5,5.3-9.5,5.3,8.9,0,12.4-5.2,13.9-8.3,1.5-3.1-1.9-1.8-4.9-1.9Z"/>
    <path class="st0" d="M196,135.2c.9-1.2,1.5-2.5,1.5-3.8.1-2.7-1.9-5.9-5-2.5-3.2,3.5-2.7,4.4-.9,6,.5.5,1.2,1,1.8,1.5-5.1,3.6-17,8.9-18.6,13.1,0,0,3.7-3.6,8.5-5.5,3-1.2,7.8-3.8,10.9-6.9,1.1,1,2,2.1,2,2.7,0,0,1.7-1.9,1.7-2.8,0,0-.9-.9-1.9-1.9ZM193.6,130.2c1-.3,4.3,1.5,1.8,4.5-.9-.8-1.8-1.6-2.3-1.9-1.3-.7-.6-2.3.5-2.6Z"/>
    <path class="st0" d="M28.3,114.2c.9-1.2,1.5-2.5,1.5-3.8.1-2.7-1.9-5.9-5-2.5-3.2,3.5-2.7,4.4-.9,6,.5.5,1.2,1,1.8,1.5-5.1,3.6-17,8.9-18.6,13.1,0,0,3.7-3.6,8.5-5.5,3-1.2,7.8-3.8,10.9-6.9,1.1,1,2,2.1,2,2.7,0,0,1.7-1.9,1.7-2.8,0,0-.9-.9-1.9-1.9ZM25.9,109.2c1-.3,4.3,1.5,1.8,4.5-.9-.8-1.8-1.6-2.3-1.9-1.3-.7-.6-2.3.5-2.6Z"/>
    <path class="st0" d="M17.3,107c-1.1-1-2-2.1-2-2.7,0,0-1.7,1.9-1.7,2.8,0,0,.9.9,1.9,1.9-.9,1.2-1.5,2.5-1.5,3.8-.1,2.7,1.9,5.9,5,2.5,3.2-3.5,2.7-4.4.9-6-.5-.5-1.2-1-1.8-1.5,5.1-3.6,17-8.9,18.6-13.1,0,0-3.7,3.6-8.5,5.5-3,1.2-7.8,3.8-10.9,6.9ZM17.9,113.9c-1,.3-4.3-1.5-1.8-4.5.9.8,1.8,1.6,2.3,1.9,1.3.7.6,2.3-.5,2.6Z"/>
    <path class="st0" d="M293.1,177.2c-1.1.9-1.7,2.4-1.7,4.2-.1,2.7.9,4.3,1.9,5.9,1.1,1.7,2.1,3.3,2,6.3-.1,3.9-1.9,6.1-3,7.2.8-1,1.4-2,1.8-3.1.2-5.4-5-9-5-9l-1,4.1c5.4.8,4.7,5.9,4,8.2-.2.6-.3,1-.4,1.1,0,0,0,0,0,0l.3.6c.2,0,4.3-2.6,4.6-9.1.1-3.4-1.1-5.4-2.2-7.1-1-1.5-1.8-2.9-1.7-5.1,0-1.5.5-2.5,1.3-3.2,1.1-1,2.7-.9,2.7-.9v-1.3c0,0-2-.2-3.6,1.2Z"/>
    <path class="st0" d="M113.5,109.5c-1.1.9-1.7,2.4-1.7,4.2-.1,2.7.9,4.3,1.9,5.9,1.1,1.7,2.1,3.3,2,6.3-.1,3.9-1.9,6.1-3,7.2.8-1,1.4-2,1.8-3.1.2-5.4-5-9-5-9l-1,4.1c5.4.8,4.7,5.9,4,8.2-.2.6-.3,1-.4,1.1,0,0,0,0,0,0l.3.6c.2,0,4.3-2.6,4.6-9.1.1-3.4-1.1-5.4-2.2-7.1-1-1.5-1.8-2.9-1.7-5.1,0-1.5.5-2.5,1.3-3.2,1.1-1,2.7-.9,2.7-.9v-1.3c0,0-2-.2-3.6,1.2Z"/>
    <path class="st0" d="M312.8,58.8c-2.3,2-3.5,4.9-3.6,8.8-.2,5.6,1.9,9,4,12.3,2.2,3.5,4.3,6.8,4.1,13.1-.3,8.1-3.9,12.8-6.2,15,1.6-2.1,3-4.2,3.7-6.5.4-11.3-10.5-18.7-10.5-18.7l-2,8.6c11.3,1.6,9.7,12.2,8.3,17.1-.3,1.2-.6,2-.7,2.3,0,0,0,0,0,0l.7,1.2c.4-.2,9-5.4,9.5-18.9.3-7.1-2.3-11.2-4.5-14.7-2-3.2-3.8-6-3.6-10.7.1-3,1-5.3,2.6-6.7,2.4-2.1,5.6-1.8,5.7-1.8l.3-2.8c-.2,0-4.5-.4-7.8,2.4Z"/>
  </g>
  <g>
    <path class="st0" d="M273.6,98.3l-6.1,8.9s2.4.3,5.8,2.6c3.4,2.4,5,6.2,5,6.2.5-6.5,4.7-8.8,7.2-10.3l-11.8-7.5Z"/>
    <path class="st0" d="M212.2,183s1.9.2,4.5,2.1c2.7,1.9,3.9,4.9,3.9,4.9.4-5.1,3.7-6.9,5.7-8.1l-9.3-5.9-4.8,7Z"/>
    <path class="st0" d="M82,165.5l-7.6-4.8-4.8,7s1.9.2,4.5,2.1c2.7,1.9,3.9,4.9,3.9,4.9.2-3.2,1.6-5.1,3-6.3.8.2,2.1.7,3.7,1.9,2.7,1.9,3.9,4.9,3.9,4.9.4-5.1,3.7-6.9,5.7-8.1l-9.3-5.9-3,4.4Z"/>
  </g>
</svg>